<svg data-v-fde0c5aa="" xmlns="http://www.w3.org/2000/svg" viewBox="0 0 300 300" class="iconLeft"><!----><defs data-v-fde0c5aa=""><!----></defs><rect data-v-fde0c5aa="" fill="#132554" x="0" y="0" width="300px" height="300px" class="logo-background-square"></rect><defs data-v-fde0c5aa=""><!----></defs><g data-v-fde0c5aa="" id="6323761b-7308-4787-8b4d-ead6e4674b2e" fill="#ffffff" transform="matrix(2.949768428035288,0,0,2.949768428035288,105.55012401095615,129.39586766379662)"><path d="M2.34 9.35L2.34 5.92L6.34 5.92L6.34 5.05L2.34 5.05L2.34 1.44L6.93 1.44L6.93 0.57L1.43 0.57L1.43 10.22L7.08 10.22L7.08 9.35ZM14.24 10.22L11.65 6.61L13.76 3.68L12.67 3.68L11.12 5.88L9.55 3.68L8.46 3.68L10.58 6.62L7.98 10.22L9.04 10.22L11.12 7.36L13.16 10.22ZM19.03 3.54C17.93 3.54 16.90 4.07 16.42 4.97L16.42 3.68L15.53 3.68L15.53 13.40L16.42 13.40L16.42 8.95C16.91 9.84 17.92 10.36 19.03 10.36C20.86 10.36 22.34 8.95 22.34 6.96C22.34 4.97 20.86 3.54 19.03 3.54ZM18.96 9.51C17.65 9.51 16.42 8.51 16.42 6.93C16.42 5.42 17.60 4.40 18.96 4.40C20.34 4.40 21.46 5.52 21.46 6.97C21.46 8.41 20.34 9.51 18.96 9.51ZM30.24 6.93C30.24 4.86 28.88 3.54 27.02 3.54C25.17 3.54 23.69 4.86 23.69 6.93C23.69 9.00 25.17 10.36 27.02 10.36C28.25 10.36 29.37 9.77 29.95 8.72L29.18 8.39C28.74 9.10 27.94 9.51 27.05 9.51C25.73 9.51 24.75 8.72 24.60 7.32L30.23 7.32C30.24 7.20 30.24 7.06 30.24 6.93ZM24.61 6.55C24.78 5.15 25.73 4.40 27.02 4.40C28.29 4.40 29.23 5.19 29.36 6.55ZM35.15 3.54C34.34 3.54 33.28 3.92 32.89 4.86L32.89 3.68L31.99 3.68L31.99 10.22L32.89 10.22L32.89 6.59C32.91 5.01 34.02 4.42 35.07 4.42C36.12 4.42 36.92 5.19 36.92 6.45L36.92 10.22L37.81 10.22L37.81 6.41C37.81 4.61 36.74 3.54 35.15 3.54ZM41.80 10.36C43.16 10.36 44.21 9.62 44.21 8.46C44.21 7.70 43.82 6.93 42.55 6.62L41.58 6.38C41.10 6.27 40.57 6.01 40.57 5.39C40.57 4.77 41.09 4.34 41.85 4.34C42.49 4.34 43.06 4.73 43.11 5.32L43.97 5.32C43.93 4.14 42.92 3.54 41.83 3.54C40.59 3.54 39.68 4.31 39.68 5.38C39.68 6.47 40.42 6.94 41.34 7.17L42.28 7.39C42.95 7.56 43.32 7.91 43.32 8.44C43.32 9.10 42.74 9.56 41.80 9.56C40.85 9.56 40.35 9.00 40.25 8.46L39.42 8.46C39.54 9.70 40.67 10.36 41.80 10.36ZM48.93 10.36C50.79 10.36 52.36 9.00 52.36 6.93C52.36 4.86 50.79 3.54 48.93 3.54C47.07 3.54 45.51 4.86 45.51 6.93C45.51 9.00 47.07 10.36 48.93 10.36ZM48.93 9.51C47.54 9.51 46.41 8.48 46.41 6.93C46.41 5.39 47.54 4.40 48.93 4.40C50.30 4.40 51.46 5.39 51.46 6.93C51.46 8.48 50.30 9.51 48.93 9.51Z"></path></g><defs data-v-fde0c5aa=""><!----></defs><g data-v-fde0c5aa="" id="1ab0cd00-0933-4b68-89e0-53e0cc0aa76f" stroke="none" fill="#00A3DD" transform="matrix(1.7740091581239033,0,0,1.7740091581239033,40,121.61585347001756)"><path d="M9.382 8.675h13.943v13.943L32 31.293V0H.707zM22.618 23.325H8.675V9.382L0 .707V32h31.293z"></path></g><!----></svg>